<mxfile host="app.diagrams.net" agent="Mozilla/5.0 (Windows NT 10.0; Win64; x64) AppleWebKit/537.36 (KHTML, like Gecko) Chrome/132.0.0.0 Safari/537.36 Edg/132.0.0.0" border="50" scale="3" compressed="false" locked="false" version="26.0.6">
  <diagram name="Blank" id="YmL12bMKpDGza6XwsDPr">
    <mxGraphModel dx="2624" dy="307" grid="0" gridSize="10" guides="1" tooltips="1" connect="1" arrows="1" fold="1" page="0" pageScale="1" pageWidth="827" pageHeight="1169" background="none" math="1" shadow="0">
      <root>
        <mxCell id="X5NqExCQtvZxIxQ7pmgY-0" />
        <mxCell id="1" parent="X5NqExCQtvZxIxQ7pmgY-0" />
        <mxCell id="twCRmPSffdXshnpnkWWS-17" style="edgeStyle=orthogonalEdgeStyle;rounded=0;orthogonalLoop=1;jettySize=auto;html=1;entryX=1.027;entryY=0.429;entryDx=0;entryDy=0;entryPerimeter=0;" edge="1" parent="1" target="twCRmPSffdXshnpnkWWS-27">
          <mxGeometry relative="1" as="geometry">
            <mxPoint x="-293" y="793" as="sourcePoint" />
            <mxPoint x="-132" y="931" as="targetPoint" />
            <Array as="points">
              <mxPoint x="-253" y="793" />
              <mxPoint x="-253" y="883" />
            </Array>
          </mxGeometry>
        </mxCell>
        <mxCell id="twCRmPSffdXshnpnkWWS-18" value="Generate&amp;nbsp;&lt;div&gt;HLS&amp;nbsp;&lt;/div&gt;&lt;div&gt;Files&lt;/div&gt;" style="edgeLabel;html=1;align=center;verticalAlign=middle;resizable=0;points=[];" vertex="1" connectable="0" parent="twCRmPSffdXshnpnkWWS-17">
          <mxGeometry x="-0.2906" y="1" relative="1" as="geometry">
            <mxPoint x="25" y="20" as="offset" />
          </mxGeometry>
        </mxCell>
        <mxCell id="twCRmPSffdXshnpnkWWS-15" value="FFMpeg" style="verticalLabelPosition=bottom;sketch=0;aspect=fixed;html=1;verticalAlign=top;strokeColor=none;align=center;outlineConnect=0;shape=mxgraph.citrix.process;" vertex="1" parent="1">
          <mxGeometry x="-347" y="763" width="52" height="62" as="geometry" />
        </mxCell>
        <mxCell id="twCRmPSffdXshnpnkWWS-13" style="edgeStyle=orthogonalEdgeStyle;rounded=0;orthogonalLoop=1;jettySize=auto;html=1;entryX=-0.019;entryY=0.506;entryDx=0;entryDy=0;entryPerimeter=0;" edge="1" parent="1" source="twCRmPSffdXshnpnkWWS-12" target="twCRmPSffdXshnpnkWWS-23">
          <mxGeometry relative="1" as="geometry">
            <mxPoint x="-466" y="794" as="targetPoint" />
          </mxGeometry>
        </mxCell>
        <mxCell id="twCRmPSffdXshnpnkWWS-14" value="Ingestion - RTMP" style="edgeLabel;html=1;align=center;verticalAlign=middle;resizable=0;points=[];" vertex="1" connectable="0" parent="twCRmPSffdXshnpnkWWS-13">
          <mxGeometry x="-0.2089" y="-3" relative="1" as="geometry">
            <mxPoint x="23" y="-13" as="offset" />
          </mxGeometry>
        </mxCell>
        <mxCell id="twCRmPSffdXshnpnkWWS-12" value="OBS" style="html=1;verticalLabelPosition=bottom;align=center;labelBackgroundColor=#ffffff;verticalAlign=top;strokeWidth=2;strokeColor=#0080F0;shadow=0;dashed=0;shape=mxgraph.ios7.icons.video_conversation;" vertex="1" parent="1">
          <mxGeometry x="-828" y="780" width="53" height="28" as="geometry" />
        </mxCell>
        <mxCell id="twCRmPSffdXshnpnkWWS-19" value="IPFS Node" style="aspect=fixed;sketch=0;html=1;dashed=0;whitespace=wrap;verticalLabelPosition=bottom;verticalAlign=top;fillColor=#2875E2;strokeColor=#ffffff;points=[[0.005,0.63,0],[0.1,0.2,0],[0.9,0.2,0],[0.5,0,0],[0.995,0.63,0],[0.72,0.99,0],[0.5,1,0],[0.28,0.99,0]];shape=mxgraph.kubernetes.icon2;prIcon=node" vertex="1" parent="1">
          <mxGeometry x="-548" y="938" width="50" height="48" as="geometry" />
        </mxCell>
        <mxCell id="twCRmPSffdXshnpnkWWS-84" style="edgeStyle=orthogonalEdgeStyle;rounded=0;orthogonalLoop=1;jettySize=auto;html=1;entryX=0.5;entryY=1;entryDx=0;entryDy=0;entryPerimeter=0;" edge="1" parent="1" source="twCRmPSffdXshnpnkWWS-21" target="twCRmPSffdXshnpnkWWS-75">
          <mxGeometry relative="1" as="geometry">
            <mxPoint x="-122.83333333333303" y="1816.0000508626304" as="targetPoint" />
            <Array as="points">
              <mxPoint x="-123" y="874" />
              <mxPoint x="-123" y="1739" />
              <mxPoint x="-775" y="1739" />
            </Array>
          </mxGeometry>
        </mxCell>
        <mxCell id="twCRmPSffdXshnpnkWWS-88" value="Register for discovery" style="edgeLabel;html=1;align=center;verticalAlign=middle;resizable=0;points=[];" vertex="1" connectable="0" parent="twCRmPSffdXshnpnkWWS-84">
          <mxGeometry x="0.4946" y="1" relative="1" as="geometry">
            <mxPoint x="34" y="-14" as="offset" />
          </mxGeometry>
        </mxCell>
        <mxCell id="twCRmPSffdXshnpnkWWS-21" value="Transcode Service" style="shape=umlFrame;whiteSpace=wrap;html=1;pointerEvents=0;" vertex="1" parent="1">
          <mxGeometry x="-594" y="734" width="420" height="279" as="geometry" />
        </mxCell>
        <mxCell id="twCRmPSffdXshnpnkWWS-24" style="edgeStyle=orthogonalEdgeStyle;rounded=0;orthogonalLoop=1;jettySize=auto;html=1;" edge="1" parent="1" source="twCRmPSffdXshnpnkWWS-23" target="twCRmPSffdXshnpnkWWS-15">
          <mxGeometry relative="1" as="geometry" />
        </mxCell>
        <mxCell id="twCRmPSffdXshnpnkWWS-34" value="Pipe stream data" style="edgeLabel;html=1;align=center;verticalAlign=middle;resizable=0;points=[];" vertex="1" connectable="0" parent="twCRmPSffdXshnpnkWWS-24">
          <mxGeometry x="-0.3406" y="3" relative="1" as="geometry">
            <mxPoint x="20" y="-8" as="offset" />
          </mxGeometry>
        </mxCell>
        <mxCell id="twCRmPSffdXshnpnkWWS-23" value="RTMP Server" style="sketch=0;html=1;aspect=fixed;strokeColor=none;shadow=0;fillColor=#3B8DF1;verticalAlign=top;labelPosition=center;verticalLabelPosition=bottom;shape=mxgraph.gcp2.process" vertex="1" parent="1">
          <mxGeometry x="-511" y="771.5" width="37.8" height="45" as="geometry" />
        </mxCell>
        <mxCell id="twCRmPSffdXshnpnkWWS-26" value="File Watcher" style="sketch=0;html=1;aspect=fixed;strokeColor=none;shadow=0;fillColor=#3B8DF1;verticalAlign=top;labelPosition=center;verticalLabelPosition=bottom;shape=mxgraph.gcp2.process" vertex="1" parent="1">
          <mxGeometry x="-437.5" y="859" width="37.8" height="45" as="geometry" />
        </mxCell>
        <mxCell id="twCRmPSffdXshnpnkWWS-27" value="Local storage" style="html=1;verticalLabelPosition=bottom;align=center;labelBackgroundColor=#ffffff;verticalAlign=top;strokeWidth=2;strokeColor=#0080F0;shadow=0;dashed=0;shape=mxgraph.ios7.icons.storage;" vertex="1" parent="1">
          <mxGeometry x="-335.5" y="878.5" width="30" height="10.5" as="geometry" />
        </mxCell>
        <mxCell id="twCRmPSffdXshnpnkWWS-28" style="edgeStyle=orthogonalEdgeStyle;rounded=0;orthogonalLoop=1;jettySize=auto;html=1;entryX=-0.048;entryY=0.333;entryDx=0;entryDy=0;entryPerimeter=0;" edge="1" parent="1" source="twCRmPSffdXshnpnkWWS-26" target="twCRmPSffdXshnpnkWWS-27">
          <mxGeometry relative="1" as="geometry" />
        </mxCell>
        <mxCell id="twCRmPSffdXshnpnkWWS-30" value="Watch" style="edgeLabel;html=1;align=center;verticalAlign=middle;resizable=0;points=[];" vertex="1" connectable="0" parent="twCRmPSffdXshnpnkWWS-28">
          <mxGeometry x="-0.3525" y="-1" relative="1" as="geometry">
            <mxPoint x="6" y="-11" as="offset" />
          </mxGeometry>
        </mxCell>
        <mxCell id="twCRmPSffdXshnpnkWWS-32" style="edgeStyle=orthogonalEdgeStyle;rounded=0;orthogonalLoop=1;jettySize=auto;html=1;entryX=0.5;entryY=0;entryDx=0;entryDy=0;entryPerimeter=0;" edge="1" parent="1" source="twCRmPSffdXshnpnkWWS-26" target="twCRmPSffdXshnpnkWWS-19">
          <mxGeometry relative="1" as="geometry" />
        </mxCell>
        <mxCell id="twCRmPSffdXshnpnkWWS-33" value="Upload HLS segments" style="edgeLabel;html=1;align=center;verticalAlign=middle;resizable=0;points=[];" vertex="1" connectable="0" parent="twCRmPSffdXshnpnkWWS-32">
          <mxGeometry x="0.1065" relative="1" as="geometry">
            <mxPoint x="8" y="-14" as="offset" />
          </mxGeometry>
        </mxCell>
        <mxCell id="twCRmPSffdXshnpnkWWS-35" value="" style="aspect=fixed;sketch=0;html=1;dashed=0;whitespace=wrap;verticalLabelPosition=bottom;verticalAlign=top;fillColor=#2875E2;strokeColor=#ffffff;points=[[0.005,0.63,0],[0.1,0.2,0],[0.9,0.2,0],[0.5,0,0],[0.995,0.63,0],[0.72,0.99,0],[0.5,1,0],[0.28,0.99,0]];shape=mxgraph.kubernetes.icon2;prIcon=node" vertex="1" parent="1">
          <mxGeometry x="-409" y="1105" width="50" height="48" as="geometry" />
        </mxCell>
        <mxCell id="twCRmPSffdXshnpnkWWS-36" value="Private IPFS Network" style="shape=umlFrame;whiteSpace=wrap;html=1;pointerEvents=0;width=74;height=42;" vertex="1" parent="1">
          <mxGeometry x="-598" y="1064" width="420" height="279" as="geometry" />
        </mxCell>
        <mxCell id="twCRmPSffdXshnpnkWWS-40" style="edgeStyle=orthogonalEdgeStyle;rounded=0;orthogonalLoop=1;jettySize=auto;html=1;entryX=0.5;entryY=0;entryDx=0;entryDy=0;entryPerimeter=0;" edge="1" parent="1" source="twCRmPSffdXshnpnkWWS-19" target="twCRmPSffdXshnpnkWWS-35">
          <mxGeometry relative="1" as="geometry">
            <Array as="points">
              <mxPoint x="-384" y="962" />
            </Array>
          </mxGeometry>
        </mxCell>
        <mxCell id="twCRmPSffdXshnpnkWWS-101" value="P2P connection" style="edgeLabel;html=1;align=center;verticalAlign=middle;resizable=0;points=[];" vertex="1" connectable="0" parent="twCRmPSffdXshnpnkWWS-40">
          <mxGeometry x="0.4786" y="4" relative="1" as="geometry">
            <mxPoint as="offset" />
          </mxGeometry>
        </mxCell>
        <mxCell id="twCRmPSffdXshnpnkWWS-50" value="IPFS Node 1" style="aspect=fixed;sketch=0;html=1;dashed=0;whitespace=wrap;verticalLabelPosition=bottom;verticalAlign=top;fillColor=#2875E2;strokeColor=#ffffff;points=[[0.005,0.63,0],[0.1,0.2,0],[0.9,0.2,0],[0.5,0,0],[0.995,0.63,0],[0.72,0.99,0],[0.5,1,0],[0.28,0.99,0]];shape=mxgraph.kubernetes.icon2;prIcon=node" vertex="1" parent="1">
          <mxGeometry x="-548" y="1253" width="50" height="48" as="geometry" />
        </mxCell>
        <mxCell id="twCRmPSffdXshnpnkWWS-51" value="IPFS Node 2" style="aspect=fixed;sketch=0;html=1;dashed=0;whitespace=wrap;verticalLabelPosition=bottom;verticalAlign=top;fillColor=#2875E2;strokeColor=#ffffff;points=[[0.005,0.63,0],[0.1,0.2,0],[0.9,0.2,0],[0.5,0,0],[0.995,0.63,0],[0.72,0.99,0],[0.5,1,0],[0.28,0.99,0]];shape=mxgraph.kubernetes.icon2;prIcon=node" vertex="1" parent="1">
          <mxGeometry x="-446.1" y="1253" width="50" height="48" as="geometry" />
        </mxCell>
        <mxCell id="twCRmPSffdXshnpnkWWS-52" value="IPFS Node N" style="aspect=fixed;sketch=0;html=1;dashed=0;whitespace=wrap;verticalLabelPosition=bottom;verticalAlign=top;fillColor=#2875E2;strokeColor=#ffffff;points=[[0.005,0.63,0],[0.1,0.2,0],[0.9,0.2,0],[0.5,0,0],[0.995,0.63,0],[0.72,0.99,0],[0.5,1,0],[0.28,0.99,0]];shape=mxgraph.kubernetes.icon2;prIcon=node" vertex="1" parent="1">
          <mxGeometry x="-274" y="1253" width="50" height="48" as="geometry" />
        </mxCell>
        <mxCell id="twCRmPSffdXshnpnkWWS-53" style="edgeStyle=orthogonalEdgeStyle;rounded=0;orthogonalLoop=1;jettySize=auto;html=1;entryX=0.5;entryY=1;entryDx=0;entryDy=0;entryPerimeter=0;" edge="1" parent="1" source="twCRmPSffdXshnpnkWWS-50">
          <mxGeometry relative="1" as="geometry">
            <mxPoint x="-384" y="1178" as="targetPoint" />
            <Array as="points">
              <mxPoint x="-523" y="1228" />
              <mxPoint x="-384" y="1228" />
            </Array>
          </mxGeometry>
        </mxCell>
        <mxCell id="twCRmPSffdXshnpnkWWS-54" value="" style="endArrow=none;html=1;rounded=0;exitX=0.5;exitY=0;exitDx=0;exitDy=0;exitPerimeter=0;" edge="1" parent="1" source="twCRmPSffdXshnpnkWWS-51">
          <mxGeometry width="50" height="50" relative="1" as="geometry">
            <mxPoint x="-437" y="1293" as="sourcePoint" />
            <mxPoint x="-421" y="1228" as="targetPoint" />
          </mxGeometry>
        </mxCell>
        <mxCell id="twCRmPSffdXshnpnkWWS-55" style="edgeStyle=orthogonalEdgeStyle;rounded=0;orthogonalLoop=1;jettySize=auto;html=1;entryX=0.5;entryY=1;entryDx=0;entryDy=0;entryPerimeter=0;" edge="1" parent="1" source="twCRmPSffdXshnpnkWWS-52">
          <mxGeometry relative="1" as="geometry">
            <mxPoint x="-384" y="1178" as="targetPoint" />
            <Array as="points">
              <mxPoint x="-249" y="1228" />
              <mxPoint x="-384" y="1228" />
            </Array>
          </mxGeometry>
        </mxCell>
        <mxCell id="twCRmPSffdXshnpnkWWS-102" value="P2P connections" style="edgeLabel;html=1;align=center;verticalAlign=middle;resizable=0;points=[];" vertex="1" connectable="0" parent="twCRmPSffdXshnpnkWWS-55">
          <mxGeometry x="0.8" relative="1" as="geometry">
            <mxPoint y="5" as="offset" />
          </mxGeometry>
        </mxCell>
        <mxCell id="twCRmPSffdXshnpnkWWS-56" value="" style="endArrow=none;dashed=1;html=1;dashPattern=1 3;strokeWidth=2;rounded=0;" edge="1" parent="1">
          <mxGeometry width="50" height="50" relative="1" as="geometry">
            <mxPoint x="-367" y="1297" as="sourcePoint" />
            <mxPoint x="-298" y="1297" as="targetPoint" />
          </mxGeometry>
        </mxCell>
        <mxCell id="twCRmPSffdXshnpnkWWS-64" value="&lt;span style=&quot;color: rgb(0, 0, 0); font-family: Helvetica; font-size: 12px; font-style: normal; font-variant-ligatures: normal; font-variant-caps: normal; font-weight: 400; letter-spacing: normal; orphans: 2; text-align: center; text-indent: 0px; text-transform: none; widows: 2; word-spacing: 0px; -webkit-text-stroke-width: 0px; white-space: nowrap; background-color: rgb(255, 255, 255); text-decoration-thickness: initial; text-decoration-style: initial; text-decoration-color: initial; display: inline !important; float: none;&quot;&gt;IPFS Bootstrap Node&lt;/span&gt;" style="text;whiteSpace=wrap;html=1;" vertex="1" parent="1">
          <mxGeometry x="-440.9957142857142" y="1151.0014285714287" width="141" height="36" as="geometry" />
        </mxCell>
        <mxCell id="twCRmPSffdXshnpnkWWS-65" value="Client" style="outlineConnect=0;dashed=0;verticalLabelPosition=bottom;verticalAlign=top;align=center;html=1;shape=mxgraph.aws3.management_console;fillColor=#D2D3D3;gradientColor=none;" vertex="1" parent="1">
          <mxGeometry x="-1077" y="1258" width="99" height="85" as="geometry" />
        </mxCell>
        <mxCell id="twCRmPSffdXshnpnkWWS-66" value="Media Player" style="shape=image;html=1;verticalAlign=top;verticalLabelPosition=bottom;labelBackgroundColor=#ffffff;imageAspect=0;aspect=fixed;image=https://cdn4.iconfinder.com/data/icons/essentials-72/24/005_-_Video-128.png" vertex="1" parent="1">
          <mxGeometry x="-1104" y="1235" width="53" height="53" as="geometry" />
        </mxCell>
        <mxCell id="twCRmPSffdXshnpnkWWS-67" style="edgeStyle=orthogonalEdgeStyle;rounded=0;orthogonalLoop=1;jettySize=auto;html=1;" edge="1" parent="1" source="twCRmPSffdXshnpnkWWS-65" target="twCRmPSffdXshnpnkWWS-74">
          <mxGeometry relative="1" as="geometry">
            <mxPoint x="-748" y="1474" as="targetPoint" />
            <Array as="points">
              <mxPoint x="-1025" y="1424" />
            </Array>
          </mxGeometry>
        </mxCell>
        <mxCell id="twCRmPSffdXshnpnkWWS-68" value="Authentication Database" style="sketch=0;outlineConnect=0;fontColor=#232F3E;gradientColor=none;fillColor=#C925D1;strokeColor=none;dashed=0;verticalLabelPosition=bottom;verticalAlign=top;align=center;html=1;fontSize=12;fontStyle=0;aspect=fixed;pointerEvents=1;shape=mxgraph.aws4.rds_postgresql_instance;" vertex="1" parent="1">
          <mxGeometry x="-314.5" y="1395" width="57" height="57" as="geometry" />
        </mxCell>
        <mxCell id="twCRmPSffdXshnpnkWWS-90" style="edgeStyle=orthogonalEdgeStyle;rounded=0;orthogonalLoop=1;jettySize=auto;html=1;" edge="1" parent="1" source="twCRmPSffdXshnpnkWWS-69" target="twCRmPSffdXshnpnkWWS-68">
          <mxGeometry relative="1" as="geometry" />
        </mxCell>
        <mxCell id="twCRmPSffdXshnpnkWWS-69" value="Authentication Service" style="image;aspect=fixed;perimeter=ellipsePerimeter;html=1;align=center;shadow=0;dashed=0;spacingTop=3;image=img/lib/active_directory/generic_server.svg;" vertex="1" parent="1">
          <mxGeometry x="-518.5" y="1398.5" width="28.000000000000004" height="50" as="geometry" />
        </mxCell>
        <mxCell id="twCRmPSffdXshnpnkWWS-70" value="User Database" style="sketch=0;outlineConnect=0;fontColor=#232F3E;gradientColor=none;fillColor=#C925D1;strokeColor=none;dashed=0;verticalLabelPosition=bottom;verticalAlign=top;align=center;html=1;fontSize=12;fontStyle=0;aspect=fixed;pointerEvents=1;shape=mxgraph.aws4.rds_postgresql_instance;" vertex="1" parent="1">
          <mxGeometry x="-314.5" y="1584.58" width="57" height="57" as="geometry" />
        </mxCell>
        <mxCell id="twCRmPSffdXshnpnkWWS-91" style="edgeStyle=orthogonalEdgeStyle;rounded=0;orthogonalLoop=1;jettySize=auto;html=1;" edge="1" parent="1" source="twCRmPSffdXshnpnkWWS-71" target="twCRmPSffdXshnpnkWWS-70">
          <mxGeometry relative="1" as="geometry" />
        </mxCell>
        <mxCell id="twCRmPSffdXshnpnkWWS-71" value="User Service" style="image;aspect=fixed;perimeter=ellipsePerimeter;html=1;align=center;shadow=0;dashed=0;spacingTop=3;image=img/lib/active_directory/generic_server.svg;" vertex="1" parent="1">
          <mxGeometry x="-518.5" y="1588.08" width="28.000000000000004" height="50" as="geometry" />
        </mxCell>
        <mxCell id="twCRmPSffdXshnpnkWWS-73" style="edgeStyle=orthogonalEdgeStyle;rounded=0;orthogonalLoop=1;jettySize=auto;html=1;entryX=-0.004;entryY=0.339;entryDx=0;entryDy=0;entryPerimeter=0;" edge="1" parent="1" source="twCRmPSffdXshnpnkWWS-66" target="twCRmPSffdXshnpnkWWS-95">
          <mxGeometry relative="1" as="geometry">
            <mxPoint x="-823.0000000000002" y="1158.088" as="targetPoint" />
            <Array as="points">
              <mxPoint x="-1077" y="1159" />
            </Array>
          </mxGeometry>
        </mxCell>
        <mxCell id="twCRmPSffdXshnpnkWWS-78" value="Get HLS Segments" style="edgeLabel;html=1;align=center;verticalAlign=middle;resizable=0;points=[];" vertex="1" connectable="0" parent="twCRmPSffdXshnpnkWWS-73">
          <mxGeometry x="0.1112" y="-1" relative="1" as="geometry">
            <mxPoint x="25" y="-11" as="offset" />
          </mxGeometry>
        </mxCell>
        <mxCell id="twCRmPSffdXshnpnkWWS-74" value="Kong API Gateway" style="outlineConnect=0;dashed=0;verticalLabelPosition=bottom;verticalAlign=top;align=center;html=1;shape=mxgraph.aws3.api_gateway;fillColor=#D9A741;gradientColor=none;" vertex="1" parent="1">
          <mxGeometry x="-804.25" y="1390.5" width="59" height="66" as="geometry" />
        </mxCell>
        <mxCell id="twCRmPSffdXshnpnkWWS-75" value="Service Discovery (consul)" style="sketch=0;points=[[0,0,0],[0.25,0,0],[0.5,0,0],[0.75,0,0],[1,0,0],[0,1,0],[0.25,1,0],[0.5,1,0],[0.75,1,0],[1,1,0],[0,0.25,0],[0,0.5,0],[0,0.75,0],[1,0.25,0],[1,0.5,0],[1,0.75,0]];outlineConnect=0;fontColor=#232F3E;fillColor=#01A88D;strokeColor=#ffffff;dashed=0;verticalLabelPosition=bottom;verticalAlign=top;align=center;html=1;fontSize=12;fontStyle=0;aspect=fixed;shape=mxgraph.aws4.resourceIcon;resIcon=mxgraph.aws4.application_discovery_service;" vertex="1" parent="1">
          <mxGeometry x="-803.25" y="1584.58" width="57" height="57" as="geometry" />
        </mxCell>
        <mxCell id="twCRmPSffdXshnpnkWWS-76" style="edgeStyle=orthogonalEdgeStyle;rounded=0;orthogonalLoop=1;jettySize=auto;html=1;entryX=0.5;entryY=0;entryDx=0;entryDy=0;entryPerimeter=0;" edge="1" parent="1" source="twCRmPSffdXshnpnkWWS-74" target="twCRmPSffdXshnpnkWWS-75">
          <mxGeometry relative="1" as="geometry" />
        </mxCell>
        <mxCell id="twCRmPSffdXshnpnkWWS-77" value="DNS Query" style="edgeLabel;html=1;align=center;verticalAlign=middle;resizable=0;points=[];" vertex="1" connectable="0" parent="twCRmPSffdXshnpnkWWS-76">
          <mxGeometry x="0.1861" y="1" relative="1" as="geometry">
            <mxPoint x="31" y="-7" as="offset" />
          </mxGeometry>
        </mxCell>
        <mxCell id="twCRmPSffdXshnpnkWWS-80" value="Authentication Service" style="shape=umlFrame;whiteSpace=wrap;html=1;pointerEvents=0;width=84;height=33;" vertex="1" parent="1">
          <mxGeometry x="-598" y="1374" width="420" height="122" as="geometry" />
        </mxCell>
        <mxCell id="twCRmPSffdXshnpnkWWS-81" style="edgeStyle=orthogonalEdgeStyle;rounded=0;orthogonalLoop=1;jettySize=auto;html=1;entryX=0;entryY=0.406;entryDx=0;entryDy=0;entryPerimeter=0;" edge="1" parent="1" source="twCRmPSffdXshnpnkWWS-74" target="twCRmPSffdXshnpnkWWS-80">
          <mxGeometry relative="1" as="geometry" />
        </mxCell>
        <mxCell id="twCRmPSffdXshnpnkWWS-82" value="JWT Authentication" style="edgeLabel;html=1;align=center;verticalAlign=middle;resizable=0;points=[];" vertex="1" connectable="0" parent="twCRmPSffdXshnpnkWWS-81">
          <mxGeometry x="0.1961" y="-2" relative="1" as="geometry">
            <mxPoint x="-13" y="-14" as="offset" />
          </mxGeometry>
        </mxCell>
        <mxCell id="twCRmPSffdXshnpnkWWS-83" value="User Service" style="shape=umlFrame;whiteSpace=wrap;html=1;pointerEvents=0;" vertex="1" parent="1">
          <mxGeometry x="-598" y="1562" width="420" height="122" as="geometry" />
        </mxCell>
        <mxCell id="twCRmPSffdXshnpnkWWS-86" value="" style="endArrow=none;html=1;rounded=0;" edge="1" parent="1">
          <mxGeometry width="50" height="50" relative="1" as="geometry">
            <mxPoint x="-124" y="1435" as="sourcePoint" />
            <mxPoint x="-178" y="1434.58" as="targetPoint" />
          </mxGeometry>
        </mxCell>
        <mxCell id="twCRmPSffdXshnpnkWWS-87" value="" style="endArrow=none;html=1;rounded=0;" edge="1" parent="1">
          <mxGeometry width="50" height="50" relative="1" as="geometry">
            <mxPoint x="-124" y="1626.42" as="sourcePoint" />
            <mxPoint x="-178" y="1626" as="targetPoint" />
          </mxGeometry>
        </mxCell>
        <mxCell id="twCRmPSffdXshnpnkWWS-89" value="NGINX - 1" style="image;aspect=fixed;perimeter=ellipsePerimeter;html=1;align=center;shadow=0;dashed=0;spacingTop=3;image=img/lib/active_directory/web_server.svg;" vertex="1" parent="1">
          <mxGeometry x="-813" y="1078" width="40" height="50" as="geometry" />
        </mxCell>
        <mxCell id="twCRmPSffdXshnpnkWWS-93" value="NGINX - 2" style="image;aspect=fixed;perimeter=ellipsePerimeter;html=1;align=center;shadow=0;dashed=0;spacingTop=3;image=img/lib/active_directory/web_server.svg;" vertex="1" parent="1">
          <mxGeometry x="-813" y="1166" width="40" height="50" as="geometry" />
        </mxCell>
        <mxCell id="twCRmPSffdXshnpnkWWS-94" value="NGINX - N" style="image;aspect=fixed;perimeter=ellipsePerimeter;html=1;align=center;shadow=0;dashed=0;spacingTop=3;image=img/lib/active_directory/web_server.svg;" vertex="1" parent="1">
          <mxGeometry x="-815" y="1256" width="40" height="50" as="geometry" />
        </mxCell>
        <mxCell id="twCRmPSffdXshnpnkWWS-95" value="NGINX Instances" style="shape=umlFrame;whiteSpace=wrap;html=1;pointerEvents=0;" vertex="1" parent="1">
          <mxGeometry x="-888" y="1064" width="167" height="279" as="geometry" />
        </mxCell>
        <mxCell id="twCRmPSffdXshnpnkWWS-96" style="edgeStyle=orthogonalEdgeStyle;rounded=0;orthogonalLoop=1;jettySize=auto;html=1;entryX=-0.002;entryY=0.5;entryDx=0;entryDy=0;entryPerimeter=0;" edge="1" parent="1" source="twCRmPSffdXshnpnkWWS-95" target="twCRmPSffdXshnpnkWWS-36">
          <mxGeometry relative="1" as="geometry" />
        </mxCell>
        <mxCell id="twCRmPSffdXshnpnkWWS-100" value="Proxy requests" style="text;html=1;align=center;verticalAlign=middle;resizable=0;points=[];autosize=1;strokeColor=none;fillColor=none;" vertex="1" parent="1">
          <mxGeometry x="-708" y="1178" width="98" height="26" as="geometry" />
        </mxCell>
      </root>
    </mxGraphModel>
  </diagram>
</mxfile>
